<?xml version="1.0" encoding="UTF-8" standalone="no"?>
<svg
   width="144.49777mm"
   height="144.49777mm"
   viewBox="0 0 144.49777 144.49777"
   version="1.1"
   id="svg5"
   inkscape:version="1.1 (c4e8f9e, 2021-05-24)"
   sodipodi:docname="answer_questions.svg"
   xmlns:inkscape="http://www.inkscape.org/namespaces/inkscape"
   xmlns:sodipodi="http://sodipodi.sourceforge.net/DTD/sodipodi-0.dtd"
   xmlns="http://www.w3.org/2000/svg"
   xmlns:svg="http://www.w3.org/2000/svg">
  <sodipodi:namedview
     id="namedview7"
     pagecolor="#505050"
     bordercolor="#eeeeee"
     borderopacity="1"
     inkscape:pageshadow="0"
     inkscape:pageopacity="0"
     inkscape:pagecheckerboard="0"
     inkscape:document-units="mm"
     showgrid="false"
     fit-margin-top="0"
     fit-margin-left="0"
     fit-margin-right="0"
     fit-margin-bottom="0"
     inkscape:zoom="0.75187991"
     inkscape:cx="803.98477"
     inkscape:cy="374.39489"
     inkscape:window-width="1848"
     inkscape:window-height="1016"
     inkscape:window-x="72"
     inkscape:window-y="27"
     inkscape:window-maximized="1"
     inkscape:current-layer="layer1" />
  <defs
     id="defs2" />
  <g
     inkscape:label="Layer 1"
     inkscape:groupmode="layer"
     id="layer1"
     transform="translate(107.80367,-49.039574)">
    <path
       style="fill:#000000;stroke-width:0.282222"
       d="m -58.894194,193.54173 c -0.465667,-0.24547 -3.451276,-3.0439 -6.634683,-6.21875 l -5.788019,-5.77245 h -9.252213 c -10.797241,0 -12.151496,-0.18042 -16.27023,-2.1676 -2.242437,-1.08191 -3.057558,-1.67711 -5.116631,-3.73618 -2.05907,-2.05907 -2.65427,-2.87419 -3.73618,-5.11663 -2.21732,-4.59572 -2.1676,-3.89696 -2.1676,-30.46625 0,-26.5693 -0.0497,-25.87053 2.1676,-30.46626 1.08191,-2.24244 1.67711,-3.05755 3.73618,-5.11662 2.057383,-2.05738 2.876043,-2.65544 5.116631,-3.73787 4.47097,-2.15994 4.861727,-2.19605 22.769442,-2.1045 l 15.586517,0.0797 0.775956,0.77611 c 1.082838,1.08306 1.0829,2.72683 1.46e-4,3.81 l -0.775809,0.77612 -16.292219,0.14906 c -17.844481,0.16327 -17.022616,0.0858 -20.344421,1.91694 -1.802912,0.99383 -4.541134,3.85826 -5.458243,5.70982 -1.67196,3.37552 -1.63734,2.77907 -1.63734,28.20751 0,25.42764 -0.0352,24.82153 1.63734,28.21532 0.978697,1.98593 4.003631,5.01087 5.989567,5.98956 3.133989,1.54448 4.004081,1.63734 15.341771,1.63734 h 10.432308 l 4.158846,4.12566 4.158846,4.12567 0.09566,-3.27333 c 0.09184,-3.14225 0.126992,-3.30464 0.877914,-4.05511 l 0.78225,-0.78178 17.279972,-0.14828 c 15.937611,-0.13677 17.386481,-0.18897 18.651061,-0.67194 4.42517,-1.69007 7.42951,-4.69633 9.09176,-9.09758 0.46173,-1.22255 0.53453,-2.64699 0.67193,-13.14791 l 0.15411,-11.77682 0.77611,-0.77566 c 1.08316,-1.08252 2.7269902,-1.08244 3.8100002,1.9e-4 l 0.77611,0.77584 0.081,11.07108 c 0.0943,12.88653 -0.029,13.95502 -2.10582,18.254 -1.0824302,2.24059 -1.6804902,3.05926 -3.7378602,5.11663 -2.05907,2.05907 -2.87419,2.65427 -5.11663,3.73618 -4.38875,2.11746 -4.89086,2.1676 -21.705466,2.1676 h -14.687443 v 5.21666 5.21666 l -0.776111,0.85182 c -0.953668,1.0467 -2.176111,1.30698 -3.316111,0.70606 z m -31.891109,-35.40022 c -1.79672,-0.73538 -2.274275,-3.09049 -0.904461,-4.46042 l 0.776045,-0.77611 25.040872,-0.0689 c 19.601309,-0.0539 25.194141,0.008 25.74643,0.28445 0.388055,0.19432 0.938264,0.82855 1.222688,1.40941 0.501359,1.0239 0.501359,1.08832 0,2.11221 -0.284424,0.58086 -0.834633,1.21399 -1.222688,1.40696 -0.546837,0.27191 -6.260747,0.34775 -25.399999,0.33711 -13.581944,-0.008 -24.948443,-0.11769 -25.258887,-0.24475 z m 59.548888,0.0107 c -1.79853,-0.77016 -2.2741,-3.1014 -0.91081,-4.46469 0.58155,-0.58155 1.04565,-0.7697 1.89858,-0.7697 3.28185,0 3.66246,4.79692 0.42334,5.33535 -0.46567,0.0774 -1.10067,0.032 -1.41111,-0.10096 z m -59.548888,-15.81317 c -1.797893,-0.74209 -2.274253,-3.09251 -0.904394,-4.46237 l 0.776111,-0.77611 h 30.890503 30.890508 l 0.77611,0.77611 c 1.08313,1.08314 1.08315,2.72683 4e-5,3.81 l -0.77606,0.77612 -30.544187,0.0546 c -16.799302,0.03 -30.798187,-0.0502 -31.108631,-0.17835 z m 108.091108,-1.18819 c -0.31045,-0.16883 -2.97844,-2.70478 -5.92888,-5.63542 l -5.3644298,-5.32844 -1.97334,0.42315 c -4.74505001,1.01754 -16.2754502,1.2409 -21.5878002,0.41821 -17.19246,-2.66249 -30.553843,-15.4606 -34.174003,-32.73334 -0.806549,-3.84825 -0.891571,-10.967 -0.177422,-14.85496 3.126994,-17.023939 16.227705,-30.172926 33.174295,-33.296547 3.29183,-0.606754 13.9435902,-0.850365 18.16085019,-0.415348 C 18.050625,51.648373 32.621855,65.084875 35.993985,83.44005 c 0.71758,3.90593 0.63991,11.30477 -0.15798,15.04924 -1.74321,8.18086 -5.51388,15.13365 -11.40409,21.02816 l -3.03389,3.0361 v 8.35038 c 0,5.59415 -0.10406,8.55385 -0.31526,8.96682 -0.73353,1.43436 -2.43376,2.0106 -3.77696,1.28009 z m 0.28222,-22.91805 c 4.32271,-3.65849 7.51984,-7.6499 9.68575,-12.09204 3.16928,-6.50002 4.31903,-13.52071 3.34475,-20.42387 -1.10053,-7.79761 -4.49639,-14.60707 -10.05809,-20.168777 -5.48206,-5.482051 -12.3617498,-8.948881 -19.87971981,-10.017827 -3.76806999,-0.535765 -13.49954019,-0.535765 -17.26760019,0 -7.51797,1.068946 -14.39767,4.535776 -19.87972,10.017827 -5.482048,5.482047 -8.948879,12.361747 -10.017824,19.879717 -2.563114,18.02655 8.706364,34.77914 26.486104,39.37277 5.22913,1.35102 17.2744302,1.50778 22.7696802,0.29633 1.47461,-0.32508 3.22613,-0.66363 3.89227,-0.75232 l 1.21115,-0.16125 3.8688498,3.84083 3.86884,3.84083 0.14111,-6.09956 0.14112,-6.09956 z m -26.6978798,-5.85654 c -1.0906202,-1.16752 -1.1023602,-2.4661 -0.0331,-3.66281 1.3958,-1.56218 3.90138,-1.03417 4.55981,0.9609 0.92235,2.79476 -2.52041,4.84967 -4.52672,2.70191 z m 1.23696,-10.32806 c -0.34395,-0.0666 -0.9472,-0.50353 -1.34056,-0.971 -0.69858,-0.83021 -0.71519,-0.95222 -0.71519,-5.25474 0,-3.91185 0.067,-4.54319 0.59864,-5.64141 0.66207,-1.36766 1.99129,-2.37467 3.8485,-2.91559 1.55181,-0.45197 3.39189,-2.03658 4.05167,-3.48915 1.03106999,-2.27001 0.46846999,-5.25047 -1.32644,-7.02695 -1.32298,-1.3094 -2.35103,-1.71781 -4.35014,-1.72818 -3.3629602,-0.0174 -5.6347302,1.98302 -6.2557502,5.50859 -0.56034,3.18109 -2.69538,4.35266 -4.76246,2.61333 -0.89484,-0.75296 -0.90059,-0.77453 -0.77671,-2.91439 0.38609,-6.66948 6.86811,-11.91282 13.3537302,-10.80188 4.87549999,0.83514 8.6924,4.20913 9.86812,8.72306 1.08424,4.16266 -0.0387,8.35155 -3.05061,11.37925 -1.32443001,1.33139 -4.29261,3.12142 -5.17585,3.12142 -0.29523,0 -0.37825,0.74531 -0.37825,3.39573 0,4.07334 -0.34472,5.17224 -1.81522,5.78665 -0.54388,0.22725 -1.02471,0.39589 -1.0685,0.37475 -0.0438,-0.0211 -0.36103,-0.0929 -0.70498,-0.15948 z m -82.9124082,24.48719 c -1.798339,-0.74476 -2.274239,-3.09331 -0.904394,-4.46316 l 0.776111,-0.77611 h 21.718281 21.718283 l 0.776111,0.77611 c 1.083113,1.08312 1.083152,2.72681 8.8e-5,3.81 l -0.776024,0.77611 -21.372004,0.0554 c -11.754605,0.0305 -21.626008,-0.0498 -21.936452,-0.17835 z"
       id="path269" />
  </g>
</svg>
