<?xml version="1.0" encoding="UTF-8" standalone="no"?>
<svg
   viewBox="0 0 26 30"
   version="1.1"
   id="svg1489"
   sodipodi:docname="bin.svg"
   width="26"
   height="30"
   inkscape:version="1.1 (c4e8f9e, 2021-05-24)"
   xmlns:inkscape="http://www.inkscape.org/namespaces/inkscape"
   xmlns:sodipodi="http://sodipodi.sourceforge.net/DTD/sodipodi-0.dtd"
   xmlns="http://www.w3.org/2000/svg"
   xmlns:svg="http://www.w3.org/2000/svg">
  <sodipodi:namedview
     id="namedview1491"
     pagecolor="#505050"
     bordercolor="#eeeeee"
     borderopacity="1"
     inkscape:pageshadow="0"
     inkscape:pageopacity="0"
     inkscape:pagecheckerboard="0"
     showgrid="false"
     fit-margin-top="0"
     fit-margin-left="0"
     fit-margin-right="0"
     fit-margin-bottom="0"
     inkscape:zoom="20.007271"
     inkscape:cx="10.121321"
     inkscape:cy="16.918849"
     inkscape:window-width="1920"
     inkscape:window-height="1016"
     inkscape:window-x="0"
     inkscape:window-y="27"
     inkscape:window-maximized="1"
     inkscape:current-layer="svg1489" />
  <defs
     id="defs1472">
    <style
       id="style1470">.cls-1{fill:#101820;}</style>
  </defs>
  <title
     id="title1474" />
  <g
     data-name="Layer 17"
     id="Layer_17"
     transform="translate(-3,-1)"
     style="fill:#4a5568;fill-opacity:1;stroke:none;stroke-opacity:1">
    <path
       class="cls-1"
       d="M 24,31 H 8 A 3,3 0 0 1 5,28 V 9 a 1,1 0 0 1 2,0 v 19 a 1,1 0 0 0 1,1 h 16 a 1,1 0 0 0 1,-1 V 9 a 1,1 0 0 1 2,0 v 19 a 3,3 0 0 1 -3,3 z"
       id="path1476"
       style="fill:#4a5568;fill-opacity:1;stroke:none;stroke-opacity:1" />
    <path
       class="cls-1"
       d="M 28,7 H 4 A 1,1 0 0 1 4,5 h 24 a 1,1 0 0 1 0,2 z"
       id="path1478"
       style="fill:#4a5568;fill-opacity:1;stroke:none;stroke-opacity:1" />
    <path
       class="cls-1"
       d="M 20,7 A 1,1 0 0 1 19,6 V 3 H 13 V 6 A 1,1 0 0 1 11,6 V 2 a 1,1 0 0 1 1,-1 h 8 a 1,1 0 0 1 1,1 v 4 a 1,1 0 0 1 -1,1 z"
       id="path1480"
       style="fill:#4a5568;fill-opacity:1;stroke:none;stroke-opacity:1" />
    <path
       class="cls-1"
       d="M 16,26 A 1,1 0 0 1 15,25 V 11 a 1,1 0 0 1 2,0 v 14 a 1,1 0 0 1 -1,1 z"
       id="path1482"
       style="fill:#4a5568;fill-opacity:1;stroke:none;stroke-opacity:1" />
    <path
       class="cls-1"
       d="M 21,24 A 1,1 0 0 1 20,23 V 13 a 1,1 0 0 1 2,0 v 10 a 1,1 0 0 1 -1,1 z"
       id="path1484"
       style="fill:#4a5568;fill-opacity:1;stroke:none;stroke-opacity:1" />
    <path
       class="cls-1"
       d="M 11,24 A 1,1 0 0 1 10,23 V 13 a 1,1 0 0 1 2,0 v 10 a 1,1 0 0 1 -1,1 z"
       id="path1486"
       style="fill:#4a5568;fill-opacity:1;stroke:none;stroke-opacity:1" />
  </g>
</svg>
