<?xml version="1.0" encoding="UTF-8" standalone="no"?>
<svg
   width="18"
   height="20"
   viewBox="0 0 18 20"
   fill="none"
   version="1.1"
   id="svg1495"
   sodipodi:docname="clipboard.svg"
   inkscape:version="1.1 (c4e8f9e, 2021-05-24)"
   xmlns:inkscape="http://www.inkscape.org/namespaces/inkscape"
   xmlns:sodipodi="http://sodipodi.sourceforge.net/DTD/sodipodi-0.dtd"
   xmlns="http://www.w3.org/2000/svg"
   xmlns:svg="http://www.w3.org/2000/svg">
  <defs
     id="defs1499" />
  <sodipodi:namedview
     id="namedview1497"
     pagecolor="#505050"
     bordercolor="#eeeeee"
     borderopacity="1"
     inkscape:pageshadow="0"
     inkscape:pageopacity="0"
     inkscape:pagecheckerboard="0"
     showgrid="false"
     fit-margin-top="0"
     fit-margin-left="0"
     fit-margin-right="0"
     fit-margin-bottom="0"
     inkscape:zoom="24.972547"
     inkscape:cx="9.8307954"
     inkscape:cy="9.9509273"
     inkscape:window-width="1920"
     inkscape:window-height="1016"
     inkscape:window-x="0"
     inkscape:window-y="27"
     inkscape:window-maximized="1"
     inkscape:current-layer="svg1495" />
  <path
     d="M 5,3 H 3 C 1.89543,3 1,3.89543 1,5 v 12 c 0,1.1046 0.89543,2 2,2 h 10 c 1.1046,0 2,-0.8954 2,-2 V 16 M 5,3 c 0,1.10457 0.89543,2 2,2 h 2 c 1.1046,0 2,-0.89543 2,-2 M 5,3 C 5,1.89543 5.89543,1 7,1 h 2 c 1.1046,0 2,0.89543 2,2 m 0,0 h 2 c 1.1046,0 2,0.89543 2,2 v 3 m 2,4 H 7 m 0,0 3,-3 m -3,3 3,3"
     stroke="#4a5568"
     stroke-width="2"
     stroke-linecap="round"
     stroke-linejoin="round"
     id="path1493" />
</svg>
