<?xml version="1.0" encoding="UTF-8" standalone="no"?>
<!-- Created with Inkscape (http://www.inkscape.org/) -->

<svg
   width="131.22275mm"
   height="131.22224mm"
   viewBox="0 0 131.22275 131.22224"
   version="1.1"
   id="svg5"
   inkscape:version="1.1 (c4e8f9e, 2021-05-24)"
   sodipodi:docname="generate_passwords.svg"
   xmlns:inkscape="http://www.inkscape.org/namespaces/inkscape"
   xmlns:sodipodi="http://sodipodi.sourceforge.net/DTD/sodipodi-0.dtd"
   xmlns="http://www.w3.org/2000/svg"
   xmlns:svg="http://www.w3.org/2000/svg">
  <sodipodi:namedview
     id="namedview7"
     pagecolor="#505050"
     bordercolor="#eeeeee"
     borderopacity="1"
     inkscape:pageshadow="0"
     inkscape:pageopacity="0"
     inkscape:pagecheckerboard="0"
     inkscape:document-units="mm"
     showgrid="false"
     fit-margin-top="0"
     fit-margin-left="0"
     fit-margin-right="0"
     fit-margin-bottom="0"
     inkscape:zoom="0.75187991"
     inkscape:cx="757.43479"
     inkscape:cy="459.51487"
     inkscape:window-width="1848"
     inkscape:window-height="1016"
     inkscape:window-x="72"
     inkscape:window-y="27"
     inkscape:window-maximized="1"
     inkscape:current-layer="layer1" />
  <defs
     id="defs2" />
  <g
     inkscape:label="Layer 1"
     inkscape:groupmode="layer"
     id="layer1"
     transform="translate(95.615128,-26.565845)">
    <path
       style="fill:#000000;stroke-width:0.264583"
       d="m -57.911002,157.18685 c -3.363158,-1.56607 -4.70441,-5.34633 -3.048529,-8.59213 0.565118,-1.10772 2.046132,-2.53754 2.913565,-2.81286 0.525987,-0.16694 0.546553,-0.35475 0.546553,-4.99155 0,-3.727 0.08482,-4.9392 0.374568,-5.35286 0.250629,-0.35783 3.052071,-1.53599 8.466666,-3.5607 l 8.092098,-3.02592 v -3.50964 -3.50963 h -5.700567 c -7.515976,0 -6.999432,0.43844 -6.999432,-5.9411 v -4.64224 h -7.99356 -7.993559 l -4.26155,4.23334 -4.261549,4.23333 h -2.808311 c -2.605713,0 -2.820825,0.0394 -2.981779,0.54655 -0.278444,0.8773 -1.709934,2.3509 -2.847464,2.93122 -2.583961,1.31824 -5.599586,0.71419 -7.561456,-1.51461 -2.30745,-2.6214 -2.17015,-5.92789 0.35131,-8.4601 2.0749,-2.08376 4.666595,-2.51179 7.244754,-1.19651 1.107723,0.56512 2.537543,2.04613 2.812856,2.91356 0.153984,0.48517 0.385799,0.54656 2.063782,0.54656 h 1.890313 l 4.26155,-4.23334 4.26155,-4.23333 h 8.911555 8.911558 v -2.11667 -2.11666 h -15.063419 c -14.99076,0 -15.064257,0.003 -15.236889,0.54655 -0.278444,0.8773 -1.709934,2.35089 -2.847464,2.93122 -2.583961,1.31824 -5.599586,0.71419 -7.561456,-1.51461 -2.30745,-2.62141 -2.17015,-5.927892 0.35131,-8.460102 2.0749,-2.08375 4.666595,-2.51179 7.244754,-1.19651 1.107723,0.56512 2.537543,2.04613 2.812856,2.91356 0.172632,0.54392 0.246129,0.54655 15.236889,0.54655 h 15.063419 v -2.52556 c 0,-2.32869 0.05063,-2.57619 0.649433,-3.175 0.533371,-0.53337 0.911638,-0.64943 2.116666,-0.64943 h 1.467234 v -3.175 -3.175 h -12.946752 c -12.851651,0 -12.948028,0.004 -13.120223,0.54655 -0.278444,0.8773 -1.709934,2.3509 -2.847464,2.93122 -2.583961,1.31824 -5.59959,0.71419 -7.561456,-1.51461 -2.307453,-2.6214 -2.17015,-5.92789 0.351307,-8.4601 2.074905,-2.08376 4.666598,-2.51179 7.244757,-1.19651 1.107723,0.56512 2.537543,2.04613 2.812856,2.91356 0.153332,0.48311 0.386394,0.54656 2.007723,0.54656 1.008839,0 1.834253,-0.0794 1.834253,-0.17641 0,-0.097 -1.040873,-2.95453 -2.313051,-6.35 l -2.31305,-6.17359 h -3.754536 c -3.561972,0 -3.763433,0.028 -3.928005,0.54655 -0.278444,0.8773 -1.709934,2.35089 -2.847464,2.93122 -2.583961,1.31824 -5.599586,0.71419 -7.561456,-1.51461 -2.30745,-2.62141 -2.17015,-5.92789 0.35131,-8.4601 2.0749,-2.08376 4.666595,-2.51179 7.244754,-1.19651 1.107723,0.56511 2.537543,2.04613 2.812856,2.91356 0.166942,0.52599 0.354757,0.54655 4.991559,0.54655 3.726996,0 4.939193,0.0848 5.35286,0.37457 0.357826,0.25063 1.535983,3.05207 3.560692,8.46667 l 3.025921,8.0921 h 8.801306 8.801303 v -14.34356 -14.34356 l -4.233333,-4.26155 -4.233333,-4.26155 v -2.80831 c 0,-2.60571 -0.03943,-2.82083 -0.546553,-2.98178 -0.867433,-0.27531 -2.348447,-1.70513 -2.913565,-2.812857 -1.315278,-2.578159 -0.887246,-5.169852 1.196512,-7.244758 2.532213,-2.521457 5.838695,-2.658759 8.460099,-0.351307 2.2288,1.961867 2.832852,4.977496 1.514613,7.561457 -0.580327,1.137535 -2.053921,2.569025 -2.931221,2.847465 -0.485161,0.15398 -0.546552,0.3858 -0.546552,2.06378 v 1.89031 l 4.233333,4.26155 4.233333,4.26155 v 9.20092 9.20091 l 1.884291,-1.74456 c 1.036362,-0.95951 1.988862,-1.74457 2.116667,-1.74457 0.130431,0 0.232375,-5.96992 0.232375,-13.60821 0,-13.52012 -0.0035,-13.60933 -0.546552,-13.78168 -0.867434,-0.27531 -2.348447,-1.70513 -2.913565,-2.812857 -1.315278,-2.578159 -0.887246,-5.169852 1.196512,-7.244758 2.532213,-2.521457 5.838695,-2.658759 8.460099,-0.351307 2.2288,1.961867 2.832851,4.977496 1.514612,7.561457 -0.580326,1.137535 -2.05392,2.569025 -2.93122,2.847465 -0.542134,0.17207 -0.546553,0.27399 -0.546553,12.60889 0,12.00264 0.01712,12.42997 0.492086,12.27923 1.498899,-0.47573 4.355811,-0.92862 5.857914,-0.92862 1.502103,0 4.359017,0.45289 5.857917,0.92862 0.4725,0.14996 0.49208,-0.17025 0.49208,-8.0459 0,-8.05668 -0.01,-8.20516 -0.54655,-8.37555 -0.86743,-0.27532 -2.34845,-1.70514 -2.91357,-2.81286 -1.315273,-2.57816 -0.887241,-5.16985 1.19652,-7.24476 2.53221,-2.521455 5.83869,-2.658758 8.4601,-0.3513 2.2288,1.96186 2.83285,4.97749 1.51461,7.56145 -0.58033,1.13753 -2.05392,2.56902 -2.93122,2.84747 -0.48311,0.15333 -0.54655,0.38639 -0.54655,2.00772 0,1.00884 0.0794,1.83425 0.17641,1.83425 0.097,0 2.95452,-1.04087 6.35,-2.31305 l 6.1735798,-2.31305 v -3.75454 c 0,-3.56197 -0.028,-3.76343 -0.54655,-3.928 -0.86743,-0.27531 -2.34844,-1.70513 -2.9135598,-2.812857 -1.31528,-2.578159 -0.88725,-5.169852 1.1965098,-7.244758 2.53221,-2.521457 5.83869,-2.658759 8.4601,-0.351307 2.2288,1.961867 2.83285,4.977496 1.51461,7.561457 -0.58033,1.137535 -2.05392,2.569025 -2.93122,2.847465 -0.52599,0.16694 -0.54655,0.35476 -0.54655,4.99156 0,3.72699 -0.0848,4.93919 -0.37457,5.35286 -0.25063,0.35782 -3.05207,1.53598 -8.4666698,3.56069 l -8.09209,3.02592 0.002,5.16329 0.002,5.16328 0.93264,0.63518 c 1.33082,0.90636 3.64547,3.47781 4.66538,5.183 l 0.87199,1.45786 h 11.1066498 11.10674 l 4.2615502,-4.23333 4.26155,-4.23334 h 2.80831 c 2.60571,0 2.82082,-0.0394 2.98178,-0.54655 0.27531,-0.86743 1.70513,-2.34845 2.81286,-2.91356 3.2458,-1.65588 7.02605,-0.31463 8.59212,3.04853 0.79973,1.71742 0.80163,3.33502 0.006,5.04372 -1.56418,3.35893 -5.35488,4.71585 -8.57911,3.07098 -1.12403,-0.57344 -2.55476,-2.05036 -2.8318,-2.92323 -0.15407,-0.48516 -0.38588,-0.54655 -2.06387,-0.54655 h -1.89028 l -4.26155,4.23333 -4.26155,4.23333 H -0.1971212 c -9.9963198,0 -11.3031398,0.0468 -11.1675398,0.4002 0.0845,0.22011 0.23271,1.17261 0.32943,2.11667 l 0.17586,1.71647 H 6.2841788 c 17.0929402,0 17.1440602,-0.002 17.3170102,-0.54656 0.27532,-0.86743 1.70514,-2.34844 2.81286,-2.91356 3.2458,-1.65588 7.02606,-0.31463 8.59212,3.04853 0.79973,1.71743 0.80163,3.33502 0.006,5.04372 -1.56417,3.35894 -5.35488,4.71586 -8.5791,3.07098 -1.12403,-0.57344 -2.55477,-2.05036 -2.8318,-2.92323 -0.17297,-0.54495 -0.22369,-0.54655 -17.3535602,-0.54655 H -10.932351 v 3.175 3.175 h 1.4672398 c 1.20502,0 1.58329,0.11606 2.11666,0.64943 0.59881,0.59881 0.64943,0.84631 0.64943,3.175 v 2.52556 h 10.83009 c 10.7125402,0 10.8319702,-0.006 11.0035602,-0.54655 0.27531,-0.86743 1.70513,-2.34844 2.81285,-2.91356 3.2458,-1.65588 7.02606,-0.31463 8.59213,3.04853 0.79973,1.71743 0.80162,3.335022 0.006,5.043722 -1.56418,3.35893 -5.35488,4.71586 -8.57911,3.07098 -1.12403,-0.57344 -2.55476,-2.05036 -2.8318,-2.92323 -0.15333,-0.48311 -0.38639,-0.54655 -2.00772,-0.54655 -1.00884,0 -1.83426,0.0794 -1.83426,0.17641 0,0.097 1.04088,2.95452 2.31306,6.35 l 2.31305,6.17359 h 3.75453 c 3.56197,0 3.76343,-0.028 3.92801,-0.54656 0.27531,-0.86743 1.70513,-2.34844 2.81285,-2.91356 3.2458,-1.65588 7.02606,-0.31463 8.59213,3.04853 0.79973,1.71743 0.80163,3.33502 0.006,5.04372 -1.56418,3.35894 -5.35489,4.71586 -8.57911,3.07098 -1.12403,-0.57344 -2.55476,-2.05036 -2.8318,-2.92323 -0.16694,-0.52598 -0.35476,-0.54655 -4.99156,-0.54655 -3.727,0 -4.93919,-0.0848 -5.35286,-0.37457 -0.35783,-0.25063 -1.53598,-3.05207 -3.5606902,-8.46666 l -3.02592,-8.0921 h -6.68464 -6.68464 v 8.87556 8.87557 l -0.64943,0.64943 c -0.53337,0.53338 -0.91164,0.64944 -2.11667,0.64944 h -1.4672298 v 4.81856 4.81856 l 4.2333298,4.26154 4.23333,4.26156 v 2.80831 c 0,2.60571 0.0394,2.82082 0.54656,2.98177 0.87286,0.27704 2.34979,1.70777 2.92323,2.8318 1.64487,3.22423 0.28795,7.01493 -3.07098,8.57911 -1.70871,0.7957 -3.3263,0.7938 -5.04373,-0.006 -3.3631598,-1.56606 -4.7044098,-5.34632 -3.0485298,-8.59212 0.5651198,-1.10773 2.0461398,-2.53754 2.9135698,-2.81286 0.48516,-0.15398 0.54655,-0.38579 0.54655,-2.06378 v -1.89031 l -4.2333298,-4.26155 -4.23333,-4.26155 v -5.73656 -5.73655 h -2.11667 -2.11667 v 11.88842 c 0,11.78209 0.005,11.88997 0.54655,12.06188 0.87287,0.27704 2.3498,1.70777 2.92323,2.8318 1.64488,3.22423 0.28796,7.01493 -3.07098,8.57911 -1.7087,0.7957 -3.32629,0.7938 -5.04372,-0.006 -3.36316,-1.56606 -4.704409,-5.34632 -3.04853,-8.59212 0.56512,-1.10773 2.04613,-2.53754 2.91357,-2.81286 0.54166,-0.17191 0.54655,-0.27979 0.54655,-12.06188 v -11.88842 h -6.35 -6.35 v 7.65508 c 0,7.50388 0.0108,7.65852 0.546553,7.82856 0.872865,0.27703 2.349791,1.70777 2.923227,2.8318 1.644878,3.22422 0.287957,7.01493 -3.070979,8.5791 -1.708702,0.79571 -3.326293,0.79381 -5.043722,-0.006 -3.363159,-1.56607 -4.704411,-5.34633 -3.048529,-8.59213 0.565118,-1.10772 2.046131,-2.53754 2.913565,-2.81285 0.483108,-0.15333 0.546552,-0.38639 0.546552,-2.00772 0,-1.00884 -0.07938,-1.83426 -0.176411,-1.83426 -0.09703,0 -2.954525,1.04088 -6.349999,2.31305 l -6.173589,2.31305 v 3.75454 c 0,3.56197 0.02803,3.76343 0.546552,3.928 0.872866,0.27704 2.349791,1.70777 2.923228,2.8318 1.644877,3.22423 0.287956,7.01493 -3.070979,8.57911 -1.708703,0.7957 -3.326294,0.7938 -5.043723,-0.006 z m 3.995489,-4.25473 c 1.312386,-1.31238 0.382434,-3.5839 -1.467234,-3.5839 -1.087728,0 -2.116666,1.02894 -2.116666,2.11667 0,1.08773 1.028938,2.11667 2.116666,2.11667 0.515506,0 1.057863,-0.24006 1.467234,-0.64944 z m 33.866662,0 c 0.40938,-0.40937 0.64944,-0.95173 0.64944,-1.46723 0,-0.51551 -0.24006,-1.05786 -0.64944,-1.46723 -0.40937,-0.40938 -0.95173,-0.64944 -1.46723,-0.64944 -0.51551,0 -1.05786,0.24006 -1.46723,0.64944 -0.40938,0.40937 -0.64944,0.95172 -0.64944,1.46723 0,0.5155 0.24006,1.05786 0.64944,1.46723 0.40937,0.40938 0.95172,0.64944 1.46723,0.64944 0.5155,0 1.05786,-0.24006 1.46723,-0.64944 z m 16.9333298,0 c 0.40938,-0.40937 0.64944,-0.95173 0.64944,-1.46723 0,-0.51551 -0.24006,-1.05786 -0.64944,-1.46723 -0.40937,-0.40938 -0.95172,-0.64944 -1.46723,-0.64944 -0.5155,0 -1.05786,0.24006 -1.46723,0.64944 -0.40938,0.40937 -0.64944,0.95172 -0.64944,1.46723 0,0.5155 0.24006,1.05786 0.64944,1.46723 0.40937,0.40938 0.95173,0.64944 1.46723,0.64944 0.51551,0 1.05786,-0.24006 1.46723,-0.64944 z m -33.8666598,-8.46666 c 1.312387,-1.31239 0.382434,-3.5839 -1.467233,-3.5839 -1.087729,0 -2.116667,1.02893 -2.116667,2.11666 0,1.08773 1.028938,2.11667 2.116667,2.11667 0.515506,0 1.057862,-0.24006 1.467233,-0.64943 z m -50.799996,-25.4 c 1.312384,-1.31239 0.382434,-3.5839 -1.467235,-3.5839 -1.087728,0 -2.116666,1.02894 -2.116666,2.11666 0,1.08773 1.028938,2.11667 2.116666,2.11667 0.515507,0 1.057862,-0.24006 1.467235,-0.64943 z m 118.533326,0 c 0.40937,-0.40937 0.64943,-0.95173 0.64943,-1.46724 0,-0.5155 -0.24006,-1.05786 -0.64943,-1.46723 -0.40937,-0.40937 -0.95173,-0.64943 -1.46723,-0.64943 -0.51551,0 -1.05787,0.24006 -1.46724,0.64943 -0.40937,0.40937 -0.64943,0.95173 -0.64943,1.46723 0,0.51551 0.24006,1.05787 0.64943,1.46724 0.40937,0.40937 0.95173,0.64943 1.46724,0.64943 0.5155,0 1.05786,-0.24006 1.46723,-0.64943 z m -62.850564,-3.83066 c 0,-2.1561 -0.04794,-2.37863 -0.546552,-2.53688 -0.867434,-0.27532 -2.348447,-1.70514 -2.913565,-2.81286 -1.315278,-2.57816 -0.887246,-5.16985 1.196512,-7.24476 2.532213,-2.52146 5.838695,-2.658762 8.460099,-0.35131 2.2288,1.96187 2.83285,4.9775 1.51461,7.56146 -0.58032,1.13753 -2.05392,2.56902 -2.93122,2.84747 -0.498608,0.15825 -0.54655,0.38078 -0.54655,2.53688 v 2.36342 h 8.46667 8.46666 V 107.01489 96.431558 h -19.049997 -19.049999 v 10.583332 10.58333 h 8.466666 8.466666 z m 3.583901,-6.75268 c 0.409373,-0.40937 0.649433,-0.95172 0.649433,-1.46723 0,-0.51551 -0.24006,-1.05786 -0.649433,-1.46723 -1.312384,-1.31239 -3.583901,-0.38244 -3.583901,1.46723 0,1.08773 1.028939,2.11667 2.116667,2.11667 0.515506,0 1.057862,-0.24006 1.467234,-0.64944 z m -59.266663,-6.35 c 1.312384,-1.31238 0.382434,-3.583902 -1.467235,-3.583902 -1.087728,0 -2.116666,1.02894 -2.116666,2.116672 0,1.08773 1.028938,2.11667 2.116666,2.11667 0.515507,0 1.057862,-0.24006 1.467235,-0.64944 z m 110.066656,0 c 0.40938,-0.40937 0.64944,-0.95172 0.64944,-1.46723 0,-0.5155 -0.24006,-1.057862 -0.64944,-1.467232 -0.40937,-0.40938 -0.95172,-0.64944 -1.46723,-0.64944 -0.51551,0 -1.05786,0.24006 -1.46723,0.64944 -0.40938,0.40937 -0.64944,0.951732 -0.64944,1.467232 0,0.51551 0.24006,1.05786 0.64944,1.46723 0.40937,0.40938 0.95172,0.64944 1.46723,0.64944 0.51551,0 1.05786,-0.24006 1.46723,-0.64944 z m -62.804771,-16.497152 0.0865,-6.56326 0.988144,-1.99827 c 1.190213,-2.40691 2.72315,-3.90738 5.182042,-5.07231 1.60039,-0.75819 2.006015,-0.83727 4.294576,-0.83727 2.389769,0 2.637139,0.0543 4.546779,0.99809 2.38504,1.17875 3.86185,2.69987 5.06759,5.21961 l 0.82295,1.7198 0.0865,6.54843 0.0865,6.54844 h 2.09631 2.09631 v -5.90453 c 0,-6.88491 -0.20037,-8.28347 -1.60658,-11.21341 -4.33826,-9.03912 -16.501987,-11.04618 -23.646427,-3.90173 -1.988386,1.98838 -3.631173,5.05169 -4.097528,7.64066 -0.155538,0.86347 -0.282797,4.22699 -0.282797,7.47448 v 5.90453 h 2.09631 2.096309 z m 16.887541,0.83927 c 0,-3.65691 -0.11359,-6.10311 -0.31453,-6.77382 -0.46098,-1.53859 -2.34001,-3.50485 -3.836751,-4.01484 -2.431692,-0.82856 -4.490944,-0.39587 -6.435182,1.35217 -1.944476,1.74825 -2.113534,2.49909 -2.113534,9.38678 v 5.7737 h 6.35 6.349997 z m -55.68276,-1.27544 c 0.409373,-0.40937 0.649432,-0.95173 0.649432,-1.46724 0,-0.5155 -0.240059,-1.05786 -0.649432,-1.46723 -1.312384,-1.31239 -3.583901,-0.38243 -3.583901,1.46723 0,1.08773 1.028939,2.11667 2.116666,2.11667 0.515507,0 1.057862,-0.24006 1.467235,-0.64943 z m 110.06666,0 c 1.31239,-1.31239 0.38243,-3.5839 -1.46723,-3.5839 -1.08773,0 -2.11667,1.02893 -2.11667,2.11666 0,1.08773 1.02894,2.11667 2.11667,2.11667 0.5155,0 1.05786,-0.24006 1.46723,-0.64943 z M -87.782177,68.265458 c 1.312384,-1.31238 0.382434,-3.5839 -1.467235,-3.5839 -1.087728,0 -2.116666,1.02894 -2.116666,2.11667 0,1.08773 1.028938,2.11667 2.116666,2.11667 0.515507,0 1.057862,-0.24006 1.467235,-0.64944 z m 118.533326,0 c 1.31239,-1.31238 0.38243,-3.5839 -1.46723,-3.5839 -1.08773,0 -2.11667,1.02894 -2.11667,2.11667 0,1.08773 1.02894,2.11667 2.11667,2.11667 0.5155,0 1.05786,-0.24006 1.46723,-0.64944 z m -50.8,-25.39999 c 1.31239,-1.31239 0.38244,-3.5839 -1.46723,-3.5839 -1.08773,0 -2.11667,1.02893 -2.11667,2.11666 0,1.08773 1.02894,2.11667 2.11667,2.11667 0.5155,0 1.05786,-0.24006 1.46723,-0.64943 z m -33.866662,-8.46667 c 1.312386,-1.312384 0.382434,-3.583901 -1.467234,-3.583901 -1.087728,0 -2.116666,1.028938 -2.116666,2.116666 0,1.087728 1.028938,2.116667 2.116666,2.116667 0.515506,0 1.057863,-0.240059 1.467234,-0.649432 z m 16.933332,0 c 1.312387,-1.312384 0.382434,-3.583901 -1.467233,-3.583901 -1.087729,0 -2.116667,1.028938 -2.116667,2.116666 0,1.087728 1.028938,2.116667 2.116667,2.116667 0.515506,0 1.057862,-0.240059 1.467233,-0.649432 z m 33.8666598,0 c 1.31239,-1.312384 0.38244,-3.583901 -1.46723,-3.583901 -1.08773,0 -2.11667,1.028938 -2.11667,2.116666 0,1.087728 1.02894,2.116667 2.11667,2.116667 0.51551,0 1.05786,-0.240059 1.46723,-0.649432 z"
       id="path21" />
  </g>
</svg>
