<?xml version="1.0" encoding="UTF-8" standalone="no"?>
<svg
   width="135.34174mm"
   height="114.83387mm"
   viewBox="0 0 135.34174 114.83387"
   version="1.1"
   id="svg5"
   inkscape:version="1.1 (c4e8f9e, 2021-05-24)"
   sodipodi:docname="vault.svg"
   xmlns:inkscape="http://www.inkscape.org/namespaces/inkscape"
   xmlns:sodipodi="http://sodipodi.sourceforge.net/DTD/sodipodi-0.dtd"
   xmlns="http://www.w3.org/2000/svg"
   xmlns:svg="http://www.w3.org/2000/svg">
  <sodipodi:namedview
     id="namedview7"
     pagecolor="#505050"
     bordercolor="#eeeeee"
     borderopacity="1"
     inkscape:pageshadow="0"
     inkscape:pageopacity="0"
     inkscape:pagecheckerboard="0"
     inkscape:document-units="mm"
     showgrid="false"
     fit-margin-top="0"
     fit-margin-left="0"
     fit-margin-right="0"
     fit-margin-bottom="0"
     inkscape:zoom="0.75187991"
     inkscape:cx="773.39478"
     inkscape:cy="315.87491"
     inkscape:window-width="1848"
     inkscape:window-height="1016"
     inkscape:window-x="72"
     inkscape:window-y="27"
     inkscape:window-maximized="1"
     inkscape:current-layer="layer1" />
  <defs
     id="defs2" />
  <g
     inkscape:label="Layer 1"
     inkscape:groupmode="layer"
     id="layer1"
     transform="translate(-20.941826,-64.629818)">
    <g
       id="g854"
       transform="translate(1.6246175,0.98775693)">
      <path
         style="fill:#d0d0d0;fill-opacity:1;stroke-width:0.264583"
         d="m 36.700662,163.32378 -0.05325,-2.31063 -6.81302,-0.0753 -6.813021,-0.0753 6.821325,-0.0615 c 5.496317,-0.0495 6.847719,0.007 6.957211,0.29264 0.07474,0.19476 0.09496,1.29609 0.04494,2.44739 l -0.09094,2.09328 z m 0.06535,-20.31123 c 0,-4.87495 0.03572,-6.86925 0.07939,-4.43177 0.04366,2.43747 0.04366,6.42606 0,8.86354 -0.04366,2.43747 -0.07939,0.44318 -0.07939,-4.43177 z M 137.04951,121.05213 c 0,-9.82265 0.033,-13.84101 0.0733,-8.92969 0.0403,4.91133 0.0403,12.94805 0,17.85938 -0.0403,4.91133 -0.0733,0.89297 -0.0733,-8.92969 z m -100.294384,0 c 0,-2.40109 0.04011,-3.38336 0.08914,-2.18281 0.04903,1.20055 0.04903,3.16508 0,4.36562 -0.04903,1.20055 -0.08914,0.21829 -0.08914,-2.18281 z m 44.11948,0 c 0,-0.3638 0.06006,-0.51263 0.133453,-0.33073 0.0734,0.1819 0.0734,0.47956 0,0.66146 -0.0734,0.1819 -0.133453,0.0331 -0.133453,-0.33073 z M 36.766015,99.091716 c 0,-4.874947 0.03572,-6.869244 0.07939,-4.43177 0.04366,2.437474 0.04366,6.426064 0,8.863544 -0.04366,2.43747 -0.07939,0.44317 -0.07939,-4.431774 z m -6.941856,-17.922998 6.802785,-0.07756 0.09375,-2.310657 0.09375,-2.310658 -0.01736,2.381249 -0.01737,2.38125 -6.879166,0.007 -6.879167,0.007 6.802785,-0.07756 z"
         id="path866" />
      <path
         style="fill:#b9b9b9;fill-opacity:1;stroke-width:0.264583"
         d="m 72.982408,169.53704 c 12.635446,-0.038 33.233262,-0.038 45.772912,1e-5 12.53966,0.038 2.20157,0.0691 -22.973532,0.0691 -25.175103,-1e-5 -35.434824,-0.0311 -22.79938,-0.0691 z m 13.357063,-26.44065 c 0.190995,-0.0764 0.419198,-0.067 0.507119,0.0209 0.08792,0.0879 -0.06835,0.15045 -0.347266,0.13896 -0.308226,-0.0127 -0.370919,-0.0754 -0.159853,-0.15985 z M 26.659396,125.35235 c 1.85539,-0.0455 4.891484,-0.0455 6.746874,0 1.855391,0.0455 0.337344,0.0827 -3.373437,0.0827 -3.710781,0 -5.228828,-0.0372 -3.373437,-0.0827 z m 0,-8.73125 c 1.85539,-0.0455 4.891484,-0.0455 6.746874,0 1.855391,0.0455 0.337344,0.0827 -3.373437,0.0827 -3.710781,0 -5.228828,-0.0372 -3.373437,-0.0827 z M 72.982408,72.434962 c 12.635446,-0.038 33.233262,-0.038 45.772912,8e-6 12.53966,0.038 2.20157,0.0691 -22.973532,0.06909 -25.175103,-5e-6 -35.434824,-0.0311 -22.79938,-0.0691 z"
         id="path864" />
      <path
         style="fill:#a3a3a3;fill-opacity:1;stroke-width:0.264583"
         d="m 145.78501,121.05213 c 0,-24.665778 0.0311,-34.756324 0.0692,-22.423434 0.038,12.332894 0.038,32.513984 0,44.846874 -0.038,12.33289 -0.0692,2.24234 -0.0692,-22.42344 z M 28.034939,143.14484 c 9.5e-5,-4.94771 0.03579,-6.93438 0.07931,-4.41483 0.04353,2.51955 0.04345,6.56767 -1.74e-4,8.99583 -0.04362,2.42816 -0.07923,0.36671 -0.07914,-4.581 z m 26.360448,4.47587 c 0.0127,-0.30823 0.07539,-0.37092 0.159851,-0.15986 0.07643,0.191 0.06703,0.41921 -0.02088,0.50712 -0.08792,0.0879 -0.150452,-0.0684 -0.138964,-0.34726 z m 30.472339,-4.52596 c 0.254662,-0.0666 0.67138,-0.0666 0.926042,0 0.254661,0.0666 0.0463,0.121 -0.463021,0.121 -0.509323,0 -0.717682,-0.0545 -0.463021,-0.121 z m 47.509244,0.002 c 0.19099,-0.0764 0.4192,-0.067 0.50712,0.0209 0.0879,0.0879 -0.0683,0.15045 -0.34727,0.13896 -0.30822,-0.0127 -0.37092,-0.0754 -0.15985,-0.15985 z M 88.241164,124.39182 c 0,-0.0549 0.208359,-0.2633 0.46302,-0.46302 0.419645,-0.32911 0.429004,-0.31975 0.0999,0.0999 -0.345643,0.44073 -0.562916,0.58089 -0.562916,0.36313 z m -16.067521,-3.33969 c 0,-0.65484 0.0516,-0.92273 0.114662,-0.59531 0.06307,0.32742 0.06307,0.8632 0,1.19062 -0.06306,0.32743 -0.114662,0.0595 -0.114662,-0.59531 z m 16.298354,-3.10885 c -0.329108,-0.41965 -0.319749,-0.42901 0.0999,-0.0999 0.254661,0.19972 0.463021,0.40808 0.463021,0.46302 0,0.21777 -0.217274,0.0776 -0.562917,-0.36312 z M 28.034939,98.959425 c 9.5e-5,-4.947708 0.03579,-6.934382 0.07931,-4.414832 0.04353,2.51955 0.04345,6.567677 -1.74e-4,8.995837 -0.04362,2.42815 -0.07923,0.3667 -0.07914,-4.581005 z m 56.968164,-0.05484 c 0.329118,-0.06329 0.805368,-0.06088 1.058333,0.0053 0.252966,0.06622 -0.01632,0.118004 -0.598397,0.115067 -0.582084,-0.0029 -0.789054,-0.05712 -0.459936,-0.120406 z m 47.373867,0.0064 c 0.19099,-0.07643 0.4192,-0.06703 0.50712,0.02087 0.0879,0.08792 -0.0683,0.150453 -0.34727,0.138965 -0.30822,-0.0127 -0.37092,-0.07539 -0.15985,-0.159851 z M 54.395387,94.439461 c 0.0127,-0.308227 0.07539,-0.37092 0.159851,-0.159854 0.07643,0.190995 0.06703,0.419198 -0.02088,0.507119 -0.08792,0.08792 -0.150452,-0.06835 -0.138964,-0.347265 z M 49.562389,72.452644 c 0.190995,-0.07643 0.419198,-0.06703 0.507119,0.02089 0.08792,0.08792 -0.06835,0.150453 -0.347265,0.138964 -0.308227,-0.0127 -0.37092,-0.07539 -0.159854,-0.159852 z"
         id="path862" />
      <path
         style="fill:#767676;fill-opacity:1;stroke-width:0.264583"
         d="m 67.471373,145.12921 c 3.053339,-3.05593 5.611055,-5.55625 5.683816,-5.55625 0.07276,0 -2.365894,2.50032 -5.419233,5.55625 -3.053339,3.05594 -5.611055,5.55625 -5.683816,5.55625 -0.07276,0 2.365894,-2.50031 5.419233,-5.55625 z m 41.804167,-6.35 c -3.05334,-3.05593 -5.492,-5.55625 -5.41924,-5.55625 0.0728,0 2.63048,2.50032 5.68382,5.55625 3.05334,3.05594 5.49199,5.55625 5.41923,5.55625 -0.0728,0 -2.63047,-2.50031 -5.68381,-5.55625 z m 0,-35.45416 c 3.05334,-3.05594 5.61105,-5.55625 5.68381,-5.55625 0.0728,0 -2.36589,2.50031 -5.41923,5.55625 -3.05334,3.05594 -5.61105,5.55625 -5.68382,5.55625 -0.0728,0 2.3659,-2.50031 5.41924,-5.55625 z m -41.804167,-6.35 C 64.418034,93.919113 61.97938,91.4188 62.05214,91.4188 c 0.07276,0 2.630477,2.500313 5.683816,5.55625 3.053339,3.05594 5.491993,5.55625 5.419233,5.55625 -0.07276,0 -2.630477,-2.50031 -5.683816,-5.55625 z"
         id="path860" />
      <path
         style="fill:#606060;fill-opacity:1;stroke-width:0.264583"
         d="m 103.19012,145.12921 c -3.05334,-3.05593 -5.491992,-5.55625 -5.419231,-5.55625 0.07276,0 2.630481,2.50032 5.683811,5.55625 3.05334,3.05594 5.492,5.55625 5.41924,5.55625 -0.0728,0 -2.63048,-2.50031 -5.68382,-5.55625 z m -41.936455,-6.2177 c 3.12616,-3.1287 5.743458,-5.68855 5.816219,-5.68855 0.07276,0 -2.425475,2.55985 -5.551636,5.68855 -3.12616,3.12869 -5.743458,5.68854 -5.816218,5.68854 -0.07276,0 2.425475,-2.55985 5.551635,-5.68854 z m 24.027473,-13.5422 c 0.190994,-0.0764 0.419198,-0.067 0.507119,0.0209 0.08792,0.0879 -0.06835,0.15046 -0.347266,0.13897 -0.308226,-0.0127 -0.370919,-0.0754 -0.159853,-0.15985 z m 22.051802,-2.99426 c 0,-0.3638 0.0601,-0.51263 0.13345,-0.33073 0.0734,0.1819 0.0734,0.47956 0,0.66146 -0.0734,0.1819 -0.13345,0.0331 -0.13345,-0.33073 z m -8.752138,-2.53559 c 0.0127,-0.30823 0.07539,-0.37092 0.159851,-0.15985 0.07643,0.19099 0.06703,0.41919 -0.02088,0.50711 -0.08792,0.0879 -0.150453,-0.0683 -0.138964,-0.34726 z m 8.752138,-0.11024 c 0,-0.36381 0.0601,-0.51263 0.13345,-0.33073 0.0734,0.1819 0.0734,0.47955 0,0.66145 -0.0734,0.18191 -0.13345,0.0331 -0.13345,-0.33072 z m -22.051802,-3.09116 c 0.190994,-0.0764 0.419198,-0.067 0.507119,0.0209 0.08792,0.0879 -0.06835,0.15046 -0.347266,0.13897 -0.308226,-0.0127 -0.370919,-0.0754 -0.159853,-0.15985 z m -24.02978,-13.51145 -5.686234,-5.754685 5.754687,5.686235 c 5.347131,5.28352 5.874059,5.82314 5.686234,5.82314 -0.03765,0 -2.627259,-2.58961 -5.754687,-5.75469 z m 41.938762,-6.15156 c 3.05334,-3.055937 5.61106,-5.55625 5.68382,-5.55625 0.0728,0 -2.3659,2.500313 -5.41924,5.55625 -3.05333,3.05594 -5.611051,5.55625 -5.683811,5.55625 -0.07276,0 2.365891,-2.50031 5.419231,-5.55625 z"
         id="path858" />
      <path
         style="fill:#333333;fill-opacity:1;stroke-width:0.264583"
         d="m 47.339474,178.07411 c -3.863944,-0.84073 -7.309422,-3.55382 -8.97394,-7.0664 -1.13971,-2.4051 -1.453535,-4.03001 -1.453535,-7.52607 v -2.74201 h -7.060214 c -6.600083,0 -7.133982,-0.0357 -8.192106,-0.54794 -0.664435,-0.32165 -1.381868,-0.94995 -1.737181,-1.52135 l -0.605289,-0.97342 v -14.55208 -14.55208 l 0.605289,-0.97342 c 0.355313,-0.57141 1.072746,-1.1997 1.737181,-1.52135 1.058124,-0.51223 1.592023,-0.54794 8.192106,-0.54794 h 7.060214 v -4.49792 -4.49791 h -7.060214 c -6.600083,0 -7.133982,-0.0357 -8.192106,-0.54794 -0.664435,-0.32165 -1.381868,-0.94995 -1.737181,-1.52136 l -0.605289,-0.97341 V 98.959425 84.407342 l 0.605289,-0.973415 c 0.355313,-0.571407 1.072746,-1.199706 1.737181,-1.521354 1.058124,-0.512228 1.592023,-0.547939 8.192106,-0.547939 h 7.060214 v -2.742012 c 0,-3.496056 0.313825,-5.120967 1.453535,-7.526065 1.690655,-3.56774 5.118876,-6.235111 9.097519,-7.078441 1.465403,-0.310613 9.352417,-0.372128 48.203996,-0.37597 32.017151,-0.0032 46.939781,0.08385 48.021871,0.280019 5.36284,0.972219 9.81938,5.490037 10.68104,10.827886 0.38532,2.386998 0.38532,90.217159 0,92.604159 -0.86166,5.33785 -5.3182,9.85567 -10.68104,10.82789 -2.51072,0.45516 -94.233684,0.35236 -96.349446,-0.10799 z m 95.587066,-8.62006 c 1.01359,-0.38296 2.18895,-1.52474 2.6295,-2.55436 0.54377,-1.27088 0.54377,-90.424233 0,-91.695116 -0.44055,-1.029622 -1.61591,-2.171396 -2.6295,-2.554357 -0.51595,-0.19494 -15.03616,-0.281416 -47.252654,-0.281416 H 49.166062 l -1.152141,0.609266 c -0.787487,0.416433 -1.344972,0.97392 -1.761405,1.761407 l -0.609267,1.152139 v 45.078337 c 0,48.63261 -0.07362,46.06451 1.359905,47.43588 1.441553,1.37904 -1.174384,1.30816 48.695264,1.31928 32.223202,0.007 46.711792,-0.076 47.228122,-0.27106 z M 57.940838,151.76253 c -2.514528,-0.60305 -3.935724,-3.30778 -3.024579,-5.7562 0.152451,-0.40965 2.950652,-3.42491 6.218227,-6.70058 l 5.941049,-5.95576 -1.197038,-2.37861 c -1.747309,-3.47206 -2.310662,-5.89044 -2.310662,-9.91925 0,-4.02881 0.563353,-6.44718 2.310662,-9.91924 l 1.197038,-2.37862 -5.941049,-5.95576 c -3.267575,-3.275663 -6.065776,-6.290923 -6.218227,-6.70058 -1.23209,-3.310853 1.733691,-6.597933 5.146781,-5.704351 0.877681,0.229786 2.084311,1.297869 7.068915,6.257269 l 6.010584,5.980192 2.588374,-1.22787 c 3.851383,-1.827012 5.368308,-2.164366 9.732126,-2.164366 4.363817,0 5.880742,0.337354 9.732126,2.164366 l 2.588373,1.22787 6.010582,-5.978456 c 4.89756,-4.871381 6.20313,-6.030476 7.05039,-6.259396 3.32841,-0.899303 6.372,2.462138 5.16531,5.704742 -0.15245,0.409657 -2.96449,3.438763 -6.24897,6.73135 l -5.9718,5.98652 0.94054,1.6864 c 3.5205,6.31233 3.5205,14.78754 0,21.09987 l -0.94054,1.68639 5.9718,5.98652 c 3.28448,3.29259 6.09652,6.3217 6.24897,6.73135 1.20669,3.24261 -1.8369,6.60405 -5.16531,5.70475 -0.84726,-0.22892 -2.15283,-1.38802 -7.05039,-6.2594 l -6.010582,-5.97845 -2.588373,1.22786 c -3.851384,1.82702 -5.368309,2.16437 -9.732126,2.16437 -4.363818,0 -5.880743,-0.33735 -9.732126,-2.16437 l -2.588374,-1.22786 -6.010584,5.97845 c -4.939517,4.91311 -6.199174,6.02971 -7.068915,6.2661 -0.582083,0.15821 -1.117865,0.27613 -1.190625,0.26204 -0.07276,-0.0141 -0.491969,-0.11186 -0.931577,-0.21729 z m 31.416018,-18.00649 c 4.838983,-1.49461 8.448137,-5.75164 9.243525,-10.90282 0.399304,-2.58603 0.0092,-5.00248 -1.217448,-7.54215 -2.263434,-4.68609 -6.723811,-7.4881 -11.919894,-7.4881 -5.855187,0 -10.837651,3.62372 -12.732692,9.26041 -0.703638,2.09294 -0.64018,6.19221 0.128686,8.31302 1.449845,3.99918 4.650208,7.07468 8.714022,8.37404 2.105221,0.67312 5.578663,0.66669 7.783801,-0.0144 z m -6.145466,-9.06589 c -1.502386,-1.02251 -1.981684,-1.90242 -1.981684,-3.63802 0,-1.15694 0.140012,-1.73766 0.553495,-2.2957 0.952605,-1.28565 2.163876,-1.93763 3.599812,-1.93763 1.595133,0 2.606008,0.49848 3.567668,1.75928 0.606909,0.7957 0.736872,1.23205 0.736872,2.47405 0,2.54397 -1.717786,4.23334 -4.30454,4.23334 -0.909405,0 -1.558287,-0.17788 -2.171623,-0.59532 z m 47.4954,17.96598 c -1.0005,-0.46011 -1.58939,-1.11893 -2.10658,-2.35675 -0.35295,-0.84473 -0.40697,-3.40832 -0.40697,-19.31498 v -18.34098 l 0.59532,-1.16505 c 0.88788,-1.737628 1.75209,-2.254362 3.77031,-2.254362 2.01821,0 2.88243,0.516734 3.77031,2.254362 l 0.59531,1.16505 v 18.40871 18.40871 l -0.59531,1.16505 c -0.32742,0.64078 -0.9178,1.39994 -1.31194,1.68703 -0.90608,0.65997 -3.22089,0.84428 -4.31045,0.34321 z m -93.794791,0.48871 v -8.86354 h -4.497916 -4.497916 v 8.86354 8.86354 h 4.497916 4.497916 z m 0,-44.185415 v -8.863541 h -4.497916 -4.497916 v 8.863541 8.863545 h 4.497916 4.497916 z"
         id="path856" />
    </g>
  </g>
</svg>
