<?xml version="1.0" encoding="UTF-8" standalone="no"?>
<svg
   version="1.1"
   x="0px"
   y="0px"
   viewBox="0 0 79.999397 52.875"
   enable-background="new 0 0 100 100"
   xml:space="preserve"
   id="svg1292"
   sodipodi:docname="view.svg"
   inkscape:version="1.1 (c4e8f9e, 2021-05-24)"
   width="79.999397"
   height="52.875"
   xmlns:inkscape="http://www.inkscape.org/namespaces/inkscape"
   xmlns:sodipodi="http://sodipodi.sourceforge.net/DTD/sodipodi-0.dtd"
   xmlns="http://www.w3.org/2000/svg"
   xmlns:svg="http://www.w3.org/2000/svg"><defs
     id="defs1296" /><sodipodi:namedview
     id="namedview1294"
     pagecolor="#505050"
     bordercolor="#eeeeee"
     borderopacity="1"
     inkscape:pageshadow="0"
     inkscape:pageopacity="0"
     inkscape:pagecheckerboard="0"
     showgrid="false"
     inkscape:zoom="6.752"
     inkscape:cx="27.917654"
     inkscape:cy="38.87737"
     inkscape:window-width="1920"
     inkscape:window-height="1016"
     inkscape:window-x="0"
     inkscape:window-y="27"
     inkscape:window-maximized="1"
     inkscape:current-layer="svg1292"
     fit-margin-top="0"
     fit-margin-left="0"
     fit-margin-right="0"
     fit-margin-bottom="0" /><g
     id="g1286"
     transform="translate(-10.000226,-23.75)"
     style="stroke:none;stroke-opacity:1;fill:#4a5568;fill-opacity:1"><path
       d="M 89.537,48.132 C 81.475,32.865 66.765,23.75 50.188,23.75 c -16.555,0 -31.396,9.098 -39.7,24.336 -0.646,1.185 -0.65,2.615 -0.014,3.804 8.301,15.488 23.1,24.735 39.588,24.735 16.496,0 31.251,-9.253 39.471,-24.751 0.621,-1.17 0.622,-2.571 0.004,-3.742 z M 50.062,68.625 c -12.808,0 -24.42,-6.914 -31.454,-18.607 7.037,-11.48 18.693,-18.268 31.579,-18.268 12.872,0 24.4,6.781 31.227,18.248 -6.961,11.706 -18.539,18.627 -31.352,18.627 z"
       id="path1282"
       style="stroke:none;stroke-opacity:1;fill:#4a5568;fill-opacity:1" /><path
       d="m 50,36.833 c -7.168,0 -13,5.832 -13,13 0,7.168 5.832,13 13,13 7.168,0 13,-5.832 13,-13 0,-7.168 -5.832,-13 -13,-13 z m 0,18.001 c -2.757,0 -5,-2.243 -5,-5 0,-2.757 2.243,-5 5,-5 2.757,0 5,2.243 5,5 0,2.757 -2.243,5 -5,5 z"
       id="path1284"
       style="stroke:none;stroke-opacity:1;fill:#4a5568;fill-opacity:1" /></g></svg>
